<mxfile host="app.diagrams.net" agent="Mozilla/5.0 (Windows NT 10.0; Win64; x64) AppleWebKit/537.36 (KHTML, like Gecko) Chrome/132.0.0.0 Safari/537.36 OPR/117.0.0.0" version="26.2.14">
  <diagram id="C5RBs43oDa-KdzZeNtuy" name="Page-1">
    <mxGraphModel dx="1228" dy="1203" grid="1" gridSize="10" guides="1" tooltips="1" connect="1" arrows="1" fold="1" page="1" pageScale="1" pageWidth="827" pageHeight="1169" math="0" shadow="0">
      <root>
        <mxCell id="WIyWlLk6GJQsqaUBKTNV-0" />
        <mxCell id="WIyWlLk6GJQsqaUBKTNV-1" parent="WIyWlLk6GJQsqaUBKTNV-0" />
        <mxCell id="jEvJ2ewWGz1gbq8sbJe9-20" style="edgeStyle=none;curved=1;rounded=0;orthogonalLoop=1;jettySize=auto;html=1;exitX=1;exitY=1;exitDx=0;exitDy=0;fontSize=12;startSize=8;endSize=8;entryX=0;entryY=0;entryDx=0;entryDy=0;" edge="1" parent="WIyWlLk6GJQsqaUBKTNV-1" source="zkfFHV4jXpPFQw0GAbJ--0" target="jEvJ2ewWGz1gbq8sbJe9-3">
          <mxGeometry relative="1" as="geometry">
            <mxPoint x="480" y="520" as="targetPoint" />
          </mxGeometry>
        </mxCell>
        <mxCell id="jEvJ2ewWGz1gbq8sbJe9-60" style="edgeStyle=none;curved=1;rounded=0;orthogonalLoop=1;jettySize=auto;html=1;exitX=0.75;exitY=1;exitDx=0;exitDy=0;entryX=0;entryY=0.5;entryDx=0;entryDy=0;fontSize=12;startSize=8;endSize=8;" edge="1" parent="WIyWlLk6GJQsqaUBKTNV-1" source="zkfFHV4jXpPFQw0GAbJ--0" target="jEvJ2ewWGz1gbq8sbJe9-12">
          <mxGeometry relative="1" as="geometry" />
        </mxCell>
        <mxCell id="zkfFHV4jXpPFQw0GAbJ--0" value="Connexion.vue" style="swimlane;fontStyle=2;align=center;verticalAlign=top;childLayout=stackLayout;horizontal=1;startSize=26;horizontalStack=0;resizeParent=1;resizeLast=0;collapsible=1;marginBottom=0;rounded=0;shadow=0;strokeWidth=1;fontSize=16;" parent="WIyWlLk6GJQsqaUBKTNV-1" vertex="1">
          <mxGeometry x="70" y="50" width="290" height="290" as="geometry">
            <mxRectangle x="220" y="120" width="160" height="26" as="alternateBounds" />
          </mxGeometry>
        </mxCell>
        <mxCell id="zkfFHV4jXpPFQw0GAbJ--3" value="+String typeUtilisateur&#xa;+Object identifiants&#xa;+String messageErreur&#xa;+Boolean montrerMotDePasse&#xa;+Object erreurs&#xa;+Number delaiMinimum&#xa;+Number tempsDebutChargement" style="text;align=left;verticalAlign=top;spacingLeft=4;spacingRight=4;overflow=hidden;rotatable=0;points=[[0,0.5],[1,0.5]];portConstraint=eastwest;rounded=0;shadow=0;html=0;fontSize=15;" parent="zkfFHV4jXpPFQw0GAbJ--0" vertex="1">
          <mxGeometry y="26" width="290" height="144" as="geometry" />
        </mxCell>
        <mxCell id="zkfFHV4jXpPFQw0GAbJ--4" value="" style="line;html=1;strokeWidth=1;align=left;verticalAlign=middle;spacingTop=-1;spacingLeft=3;spacingRight=3;rotatable=0;labelPosition=right;points=[];portConstraint=eastwest;" parent="zkfFHV4jXpPFQw0GAbJ--0" vertex="1">
          <mxGeometry y="170" width="290" height="8" as="geometry" />
        </mxCell>
        <mxCell id="jEvJ2ewWGz1gbq8sbJe9-2" value="+Boolean formulaireValide()&#xa;+Object niveauSecuriteMotDePasse()&#xa;+changerTypeUtilisateur(type)&#xa;+validerMotDePasse()&#xa;+soumettreFormulaire()&#xa;&#xa;" style="text;align=left;verticalAlign=top;spacingLeft=4;spacingRight=4;overflow=hidden;rotatable=0;points=[[0,0.5],[1,0.5]];portConstraint=eastwest;rounded=0;shadow=0;html=0;fontSize=15;" vertex="1" parent="zkfFHV4jXpPFQw0GAbJ--0">
          <mxGeometry y="178" width="290" height="102" as="geometry" />
        </mxCell>
        <mxCell id="jEvJ2ewWGz1gbq8sbJe9-27" style="edgeStyle=none;curved=1;rounded=0;orthogonalLoop=1;jettySize=auto;html=1;exitX=0;exitY=0.5;exitDx=0;exitDy=0;fontSize=12;startSize=8;endSize=8;entryX=0.75;entryY=0;entryDx=0;entryDy=0;" edge="1" parent="WIyWlLk6GJQsqaUBKTNV-1" source="jEvJ2ewWGz1gbq8sbJe9-19" target="jEvJ2ewWGz1gbq8sbJe9-3">
          <mxGeometry relative="1" as="geometry">
            <mxPoint x="560" y="420" as="targetPoint" />
          </mxGeometry>
        </mxCell>
        <mxCell id="jEvJ2ewWGz1gbq8sbJe9-3" value="AuthService" style="swimlane;fontStyle=2;align=center;verticalAlign=top;childLayout=stackLayout;horizontal=1;startSize=26;horizontalStack=0;resizeParent=1;resizeLast=0;collapsible=1;marginBottom=0;rounded=0;shadow=0;strokeWidth=1;fontSize=16;" vertex="1" parent="WIyWlLk6GJQsqaUBKTNV-1">
          <mxGeometry x="294" y="640" width="190" height="160" as="geometry">
            <mxRectangle x="220" y="120" width="160" height="26" as="alternateBounds" />
          </mxGeometry>
        </mxCell>
        <mxCell id="jEvJ2ewWGz1gbq8sbJe9-5" value="" style="line;html=1;strokeWidth=1;align=left;verticalAlign=middle;spacingTop=-1;spacingLeft=3;spacingRight=3;rotatable=0;labelPosition=right;points=[];portConstraint=eastwest;" vertex="1" parent="jEvJ2ewWGz1gbq8sbJe9-3">
          <mxGeometry y="26" width="190" height="8" as="geometry" />
        </mxCell>
        <mxCell id="jEvJ2ewWGz1gbq8sbJe9-4" value="+saveToken(token)&#xa;+saveUserType(type)&#xa;+saveUserData(data)&#xa;+isAuthenticated()&#xa;+getUserType()&#xa;+logout()" style="text;align=left;verticalAlign=top;spacingLeft=4;spacingRight=4;overflow=hidden;rotatable=0;points=[[0,0.5],[1,0.5]];portConstraint=eastwest;rounded=0;shadow=0;html=0;fontSize=15;" vertex="1" parent="jEvJ2ewWGz1gbq8sbJe9-3">
          <mxGeometry y="34" width="190" height="114" as="geometry" />
        </mxCell>
        <mxCell id="jEvJ2ewWGz1gbq8sbJe9-26" style="edgeStyle=none;curved=1;rounded=0;orthogonalLoop=1;jettySize=auto;html=1;exitX=0.5;exitY=0;exitDx=0;exitDy=0;entryX=0.5;entryY=1;entryDx=0;entryDy=0;fontSize=12;startSize=8;endSize=8;" edge="1" parent="WIyWlLk6GJQsqaUBKTNV-1" source="jEvJ2ewWGz1gbq8sbJe9-7" target="zkfFHV4jXpPFQw0GAbJ--0">
          <mxGeometry relative="1" as="geometry" />
        </mxCell>
        <mxCell id="jEvJ2ewWGz1gbq8sbJe9-7" value="AxiosService" style="swimlane;fontStyle=2;align=center;verticalAlign=top;childLayout=stackLayout;horizontal=1;startSize=26;horizontalStack=0;resizeParent=1;resizeLast=0;collapsible=1;marginBottom=0;rounded=0;shadow=0;strokeWidth=1;fontSize=16;" vertex="1" parent="WIyWlLk6GJQsqaUBKTNV-1">
          <mxGeometry x="40" y="510" width="140" height="130" as="geometry">
            <mxRectangle x="220" y="120" width="160" height="26" as="alternateBounds" />
          </mxGeometry>
        </mxCell>
        <mxCell id="jEvJ2ewWGz1gbq8sbJe9-8" value="" style="line;html=1;strokeWidth=1;align=left;verticalAlign=middle;spacingTop=-1;spacingLeft=3;spacingRight=3;rotatable=0;labelPosition=right;points=[];portConstraint=eastwest;" vertex="1" parent="jEvJ2ewWGz1gbq8sbJe9-7">
          <mxGeometry y="26" width="140" height="8" as="geometry" />
        </mxCell>
        <mxCell id="jEvJ2ewWGz1gbq8sbJe9-9" value="+get(url)&#xa;+post(url, data)" style="text;align=left;verticalAlign=top;spacingLeft=4;spacingRight=4;overflow=hidden;rotatable=0;points=[[0,0.5],[1,0.5]];portConstraint=eastwest;rounded=0;shadow=0;html=0;fontSize=15;" vertex="1" parent="jEvJ2ewWGz1gbq8sbJe9-7">
          <mxGeometry y="34" width="140" height="76" as="geometry" />
        </mxCell>
        <mxCell id="jEvJ2ewWGz1gbq8sbJe9-10" value="Router" style="swimlane;fontStyle=2;align=center;verticalAlign=top;childLayout=stackLayout;horizontal=1;startSize=26;horizontalStack=0;resizeParent=1;resizeLast=0;collapsible=1;marginBottom=0;rounded=0;shadow=0;strokeWidth=1;fontSize=16;" vertex="1" parent="WIyWlLk6GJQsqaUBKTNV-1">
          <mxGeometry x="450" y="390" width="130" height="110" as="geometry">
            <mxRectangle x="220" y="120" width="160" height="26" as="alternateBounds" />
          </mxGeometry>
        </mxCell>
        <mxCell id="jEvJ2ewWGz1gbq8sbJe9-11" value="" style="line;html=1;strokeWidth=1;align=left;verticalAlign=middle;spacingTop=-1;spacingLeft=3;spacingRight=3;rotatable=0;labelPosition=right;points=[];portConstraint=eastwest;" vertex="1" parent="jEvJ2ewWGz1gbq8sbJe9-10">
          <mxGeometry y="26" width="130" height="8" as="geometry" />
        </mxCell>
        <mxCell id="jEvJ2ewWGz1gbq8sbJe9-12" value="+push(path)" style="text;align=left;verticalAlign=top;spacingLeft=4;spacingRight=4;overflow=hidden;rotatable=0;points=[[0,0.5],[1,0.5]];portConstraint=eastwest;rounded=0;shadow=0;html=0;fontSize=15;" vertex="1" parent="jEvJ2ewWGz1gbq8sbJe9-10">
          <mxGeometry y="34" width="130" height="76" as="geometry" />
        </mxCell>
        <mxCell id="jEvJ2ewWGz1gbq8sbJe9-16" value="Consommation.vue" style="swimlane;fontStyle=2;align=center;verticalAlign=top;childLayout=stackLayout;horizontal=1;startSize=26;horizontalStack=0;resizeParent=1;resizeLast=0;collapsible=1;marginBottom=0;rounded=0;shadow=0;strokeWidth=1;fontSize=16;" vertex="1" parent="WIyWlLk6GJQsqaUBKTNV-1">
          <mxGeometry x="690" y="50" width="440" height="400" as="geometry">
            <mxRectangle x="220" y="120" width="160" height="26" as="alternateBounds" />
          </mxGeometry>
        </mxCell>
        <mxCell id="jEvJ2ewWGz1gbq8sbJe9-17" value="+String graphiqueSelectionne&#xa;+String periodeSelectionnee&#xa;+Array moisDisponibles&#xa;+String moisSelectionne&#xa;+String dateDebut&#xa;+String dateFin&#xa;+Number consommationActuelle&#xa;+Object waterChart&#xa;+Object electricityChart&#xa;+Object waterCtx&#xa;+Object electricityCtx&#xa;+Object consommationEau&#xa;+Object consommationElectricite" style="text;align=left;verticalAlign=top;spacingLeft=4;spacingRight=4;overflow=hidden;rotatable=0;points=[[0,0.5],[1,0.5]];portConstraint=eastwest;rounded=0;shadow=0;html=0;fontSize=15;" vertex="1" parent="jEvJ2ewWGz1gbq8sbJe9-16">
          <mxGeometry y="26" width="440" height="244" as="geometry" />
        </mxCell>
        <mxCell id="jEvJ2ewWGz1gbq8sbJe9-18" value="" style="line;html=1;strokeWidth=1;align=left;verticalAlign=middle;spacingTop=-1;spacingLeft=3;spacingRight=3;rotatable=0;labelPosition=right;points=[];portConstraint=eastwest;" vertex="1" parent="jEvJ2ewWGz1gbq8sbJe9-16">
          <mxGeometry y="270" width="440" height="8" as="geometry" />
        </mxCell>
        <mxCell id="jEvJ2ewWGz1gbq8sbJe9-19" value="+String obtenirTextePeriode()&#xa;+void initialiserGraphiques()&#xa;+async recupererDonnees()&#xa;+void mettreAJourGraphique(graphique, donnees, cleQuantite)&#xa;+void filtrerMoisDisponibles()" style="text;align=left;verticalAlign=top;spacingLeft=4;spacingRight=4;overflow=hidden;rotatable=0;points=[[0,0.5],[1,0.5]];portConstraint=eastwest;rounded=0;shadow=0;html=0;fontSize=15;" vertex="1" parent="jEvJ2ewWGz1gbq8sbJe9-16">
          <mxGeometry y="278" width="440" height="122" as="geometry" />
        </mxCell>
        <mxCell id="jEvJ2ewWGz1gbq8sbJe9-59" style="edgeStyle=none;curved=1;rounded=0;orthogonalLoop=1;jettySize=auto;html=1;exitX=0.5;exitY=1;exitDx=0;exitDy=0;entryX=0.5;entryY=0;entryDx=0;entryDy=0;fontSize=12;startSize=8;endSize=8;" edge="1" parent="WIyWlLk6GJQsqaUBKTNV-1" source="jEvJ2ewWGz1gbq8sbJe9-21" target="jEvJ2ewWGz1gbq8sbJe9-10">
          <mxGeometry relative="1" as="geometry" />
        </mxCell>
        <mxCell id="jEvJ2ewWGz1gbq8sbJe9-21" value="Panneau.vue" style="swimlane;fontStyle=2;align=center;verticalAlign=top;childLayout=stackLayout;horizontal=1;startSize=26;horizontalStack=0;resizeParent=1;resizeLast=0;collapsible=1;marginBottom=0;rounded=0;shadow=0;strokeWidth=1;fontSize=16;" vertex="1" parent="WIyWlLk6GJQsqaUBKTNV-1">
          <mxGeometry x="380" y="50" width="290" height="290" as="geometry">
            <mxRectangle x="220" y="120" width="160" height="26" as="alternateBounds" />
          </mxGeometry>
        </mxCell>
        <mxCell id="jEvJ2ewWGz1gbq8sbJe9-22" value="+String typeUtilisateur&#xa;+Object identifiants&#xa;+String messageErreur&#xa;+Boolean montrerMotDePasse&#xa;+Object erreurs&#xa;+Number delaiMinimum&#xa;+Number tempsDebutChargement" style="text;align=left;verticalAlign=top;spacingLeft=4;spacingRight=4;overflow=hidden;rotatable=0;points=[[0,0.5],[1,0.5]];portConstraint=eastwest;rounded=0;shadow=0;html=0;fontSize=15;" vertex="1" parent="jEvJ2ewWGz1gbq8sbJe9-21">
          <mxGeometry y="26" width="290" height="144" as="geometry" />
        </mxCell>
        <mxCell id="jEvJ2ewWGz1gbq8sbJe9-23" value="" style="line;html=1;strokeWidth=1;align=left;verticalAlign=middle;spacingTop=-1;spacingLeft=3;spacingRight=3;rotatable=0;labelPosition=right;points=[];portConstraint=eastwest;" vertex="1" parent="jEvJ2ewWGz1gbq8sbJe9-21">
          <mxGeometry y="170" width="290" height="8" as="geometry" />
        </mxCell>
        <mxCell id="jEvJ2ewWGz1gbq8sbJe9-24" value="+Boolean formulaireValide()&#xa;+Object niveauSecuriteMotDePasse()&#xa;+changerTypeUtilisateur(type)&#xa;+validerMotDePasse()&#xa;+soumettreFormulaire()&#xa;&#xa;" style="text;align=left;verticalAlign=top;spacingLeft=4;spacingRight=4;overflow=hidden;rotatable=0;points=[[0,0.5],[1,0.5]];portConstraint=eastwest;rounded=0;shadow=0;html=0;fontSize=15;" vertex="1" parent="jEvJ2ewWGz1gbq8sbJe9-21">
          <mxGeometry y="178" width="290" height="102" as="geometry" />
        </mxCell>
        <mxCell id="jEvJ2ewWGz1gbq8sbJe9-25" style="edgeStyle=none;curved=1;rounded=0;orthogonalLoop=1;jettySize=auto;html=1;exitX=0.25;exitY=1;exitDx=0;exitDy=0;entryX=0.25;entryY=0;entryDx=0;entryDy=0;fontSize=12;startSize=8;endSize=8;" edge="1" parent="WIyWlLk6GJQsqaUBKTNV-1" source="jEvJ2ewWGz1gbq8sbJe9-21" target="jEvJ2ewWGz1gbq8sbJe9-3">
          <mxGeometry relative="1" as="geometry" />
        </mxCell>
        <mxCell id="jEvJ2ewWGz1gbq8sbJe9-51" style="edgeStyle=none;curved=1;rounded=0;orthogonalLoop=1;jettySize=auto;html=1;exitX=0.005;exitY=-0.038;exitDx=0;exitDy=0;fontSize=12;startSize=8;endSize=8;entryX=1;entryY=0.5;entryDx=0;entryDy=0;exitPerimeter=0;" edge="1" parent="WIyWlLk6GJQsqaUBKTNV-1" source="jEvJ2ewWGz1gbq8sbJe9-32" target="jEvJ2ewWGz1gbq8sbJe9-4">
          <mxGeometry relative="1" as="geometry">
            <mxPoint x="405.2857142857142" y="650" as="targetPoint" />
          </mxGeometry>
        </mxCell>
        <mxCell id="jEvJ2ewWGz1gbq8sbJe9-28" value="Configuration.vue" style="swimlane;fontStyle=2;align=center;verticalAlign=top;childLayout=stackLayout;horizontal=1;startSize=26;horizontalStack=0;resizeParent=1;resizeLast=0;collapsible=1;marginBottom=0;rounded=0;shadow=0;strokeWidth=1;fontSize=16;" vertex="1" parent="WIyWlLk6GJQsqaUBKTNV-1">
          <mxGeometry x="590" y="580" width="250" height="230" as="geometry">
            <mxRectangle x="220" y="120" width="160" height="26" as="alternateBounds" />
          </mxGeometry>
        </mxCell>
        <mxCell id="jEvJ2ewWGz1gbq8sbJe9-29" value="// Formulaire configuration&#xa;+String ongletActif&#xa;+FormulaireCompte&#xa;+FormulaireSeuils" style="text;align=left;verticalAlign=top;spacingLeft=4;spacingRight=4;overflow=hidden;rotatable=0;points=[[0,0.5],[1,0.5]];portConstraint=eastwest;rounded=0;shadow=0;html=0;fontSize=15;" vertex="1" parent="jEvJ2ewWGz1gbq8sbJe9-28">
          <mxGeometry y="26" width="250" height="94" as="geometry" />
        </mxCell>
        <mxCell id="jEvJ2ewWGz1gbq8sbJe9-30" value="" style="line;html=1;strokeWidth=1;align=left;verticalAlign=middle;spacingTop=-1;spacingLeft=3;spacingRight=3;rotatable=0;labelPosition=right;points=[];portConstraint=eastwest;" vertex="1" parent="jEvJ2ewWGz1gbq8sbJe9-28">
          <mxGeometry y="120" width="250" height="8" as="geometry" />
        </mxCell>
        <mxCell id="jEvJ2ewWGz1gbq8sbJe9-32" value="+changerTypeUtilisateur()&#xa;+soumettreFormulaire()&#xa;+soumettreSeuils()&#xa;+reinitialiserFormulaire()&#xa;+allerAuPanneau()" style="text;align=left;verticalAlign=top;spacingLeft=4;spacingRight=4;overflow=hidden;rotatable=0;points=[[0,0.5],[1,0.5]];portConstraint=eastwest;rounded=0;shadow=0;html=0;fontSize=15;" vertex="1" parent="jEvJ2ewWGz1gbq8sbJe9-28">
          <mxGeometry y="128" width="250" height="94" as="geometry" />
        </mxCell>
        <mxCell id="jEvJ2ewWGz1gbq8sbJe9-34" value="&#xa;&#xa;&#xa;" style="text;align=left;verticalAlign=top;spacingLeft=4;spacingRight=4;overflow=hidden;rotatable=0;points=[[0,0.5],[1,0.5]];portConstraint=eastwest;rounded=0;shadow=0;html=0;fontSize=15;" vertex="1" parent="jEvJ2ewWGz1gbq8sbJe9-28">
          <mxGeometry y="222" width="250" height="2" as="geometry" />
        </mxCell>
        <mxCell id="jEvJ2ewWGz1gbq8sbJe9-35" value="FormulaireCompte" style="swimlane;fontStyle=2;align=center;verticalAlign=top;childLayout=stackLayout;horizontal=1;startSize=26;horizontalStack=0;resizeParent=1;resizeLast=0;collapsible=1;marginBottom=0;rounded=0;shadow=0;strokeWidth=1;fontSize=16;" vertex="1" parent="WIyWlLk6GJQsqaUBKTNV-1">
          <mxGeometry x="290" y="890" width="230" height="200" as="geometry">
            <mxRectangle x="220" y="120" width="160" height="26" as="alternateBounds" />
          </mxGeometry>
        </mxCell>
        <mxCell id="jEvJ2ewWGz1gbq8sbJe9-36" value="+String typeUtilisateur&#xa;+String motDePasse&#xa;+Number numeroEmplacement&#xa;+String dateDebut&#xa;+String dateFin&#xa;+String identifiant&#xa;+String email&#xa;+String telephone" style="text;align=left;verticalAlign=top;spacingLeft=4;spacingRight=4;overflow=hidden;rotatable=0;points=[[0,0.5],[1,0.5]];portConstraint=eastwest;rounded=0;shadow=0;html=0;fontSize=15;" vertex="1" parent="jEvJ2ewWGz1gbq8sbJe9-35">
          <mxGeometry y="26" width="230" height="174" as="geometry" />
        </mxCell>
        <mxCell id="jEvJ2ewWGz1gbq8sbJe9-46" value="FormulaireSeuils" style="swimlane;fontStyle=2;align=center;verticalAlign=top;childLayout=stackLayout;horizontal=1;startSize=26;horizontalStack=0;resizeParent=1;resizeLast=0;collapsible=1;marginBottom=0;rounded=0;shadow=0;strokeWidth=1;fontSize=16;" vertex="1" parent="WIyWlLk6GJQsqaUBKTNV-1">
          <mxGeometry x="670" y="930" width="220" height="200" as="geometry">
            <mxRectangle x="220" y="120" width="160" height="26" as="alternateBounds" />
          </mxGeometry>
        </mxCell>
        <mxCell id="jEvJ2ewWGz1gbq8sbJe9-47" value="+Number seuilEauMatin&#xa;+Number seuilEauMidi&#xa;+Number seuilEauSoir&#xa;+Number seuilElectriciteMatin&#xa;+Number seuilElectriciteMidi&#xa;+Number seuilElectriciteSoir" style="text;align=left;verticalAlign=top;spacingLeft=4;spacingRight=4;overflow=hidden;rotatable=0;points=[[0,0.5],[1,0.5]];portConstraint=eastwest;rounded=0;shadow=0;html=0;fontSize=15;" vertex="1" parent="jEvJ2ewWGz1gbq8sbJe9-46">
          <mxGeometry y="26" width="220" height="124" as="geometry" />
        </mxCell>
        <mxCell id="jEvJ2ewWGz1gbq8sbJe9-49" style="edgeStyle=none;curved=1;rounded=0;orthogonalLoop=1;jettySize=auto;html=1;exitX=1;exitY=0.5;exitDx=0;exitDy=0;fontSize=12;startSize=8;endSize=8;entryX=0.5;entryY=0;entryDx=0;entryDy=0;" edge="1" parent="WIyWlLk6GJQsqaUBKTNV-1" source="jEvJ2ewWGz1gbq8sbJe9-34" target="jEvJ2ewWGz1gbq8sbJe9-46">
          <mxGeometry relative="1" as="geometry">
            <mxPoint x="897.8059071729963" y="940" as="targetPoint" />
          </mxGeometry>
        </mxCell>
        <mxCell id="jEvJ2ewWGz1gbq8sbJe9-50" style="edgeStyle=none;curved=1;rounded=0;orthogonalLoop=1;jettySize=auto;html=1;exitX=0;exitY=0.5;exitDx=0;exitDy=0;entryX=1.015;entryY=0.441;entryDx=0;entryDy=0;fontSize=12;startSize=8;endSize=8;entryPerimeter=0;" edge="1" parent="WIyWlLk6GJQsqaUBKTNV-1" source="jEvJ2ewWGz1gbq8sbJe9-34" target="jEvJ2ewWGz1gbq8sbJe9-36">
          <mxGeometry relative="1" as="geometry" />
        </mxCell>
        <mxCell id="jEvJ2ewWGz1gbq8sbJe9-52" style="edgeStyle=none;curved=1;rounded=0;orthogonalLoop=1;jettySize=auto;html=1;exitX=0;exitY=0;exitDx=0;exitDy=0;entryX=0.99;entryY=0.652;entryDx=0;entryDy=0;entryPerimeter=0;fontSize=12;startSize=8;endSize=8;" edge="1" parent="WIyWlLk6GJQsqaUBKTNV-1" source="jEvJ2ewWGz1gbq8sbJe9-28" target="jEvJ2ewWGz1gbq8sbJe9-9">
          <mxGeometry relative="1" as="geometry" />
        </mxCell>
        <mxCell id="jEvJ2ewWGz1gbq8sbJe9-54" value="ChartService" style="swimlane;fontStyle=2;align=center;verticalAlign=top;childLayout=stackLayout;horizontal=1;startSize=26;horizontalStack=0;resizeParent=1;resizeLast=0;collapsible=1;marginBottom=0;rounded=0;shadow=0;strokeWidth=1;fontSize=16;" vertex="1" parent="WIyWlLk6GJQsqaUBKTNV-1">
          <mxGeometry x="960" y="560" width="180" height="140" as="geometry">
            <mxRectangle x="220" y="120" width="160" height="26" as="alternateBounds" />
          </mxGeometry>
        </mxCell>
        <mxCell id="jEvJ2ewWGz1gbq8sbJe9-55" value="" style="line;html=1;strokeWidth=1;align=left;verticalAlign=middle;spacingTop=-1;spacingLeft=3;spacingRight=3;rotatable=0;labelPosition=right;points=[];portConstraint=eastwest;" vertex="1" parent="jEvJ2ewWGz1gbq8sbJe9-54">
          <mxGeometry y="26" width="180" height="8" as="geometry" />
        </mxCell>
        <mxCell id="jEvJ2ewWGz1gbq8sbJe9-56" value="+Chart waterChart&#xa;+Chart electricityChart&#xa;" style="text;align=left;verticalAlign=top;spacingLeft=4;spacingRight=4;overflow=hidden;rotatable=0;points=[[0,0.5],[1,0.5]];portConstraint=eastwest;rounded=0;shadow=0;html=0;fontSize=15;" vertex="1" parent="jEvJ2ewWGz1gbq8sbJe9-54">
          <mxGeometry y="34" width="180" height="76" as="geometry" />
        </mxCell>
        <mxCell id="jEvJ2ewWGz1gbq8sbJe9-58" style="edgeStyle=none;curved=1;rounded=0;orthogonalLoop=1;jettySize=auto;html=1;exitX=0.5;exitY=0;exitDx=0;exitDy=0;entryX=0.808;entryY=1.032;entryDx=0;entryDy=0;entryPerimeter=0;fontSize=12;startSize=8;endSize=8;" edge="1" parent="WIyWlLk6GJQsqaUBKTNV-1" source="jEvJ2ewWGz1gbq8sbJe9-54" target="jEvJ2ewWGz1gbq8sbJe9-19">
          <mxGeometry relative="1" as="geometry" />
        </mxCell>
      </root>
    </mxGraphModel>
  </diagram>
</mxfile>
